<?xml version="1.0" encoding="UTF-8"?>
<svg id="Layer_2" xmlns="http://www.w3.org/2000/svg" viewBox="0 0 208 208">
  <defs>
    <style>
      .cls-1 {
        fill: none;
        stroke: #fff;
        stroke-miterlimit: 10;
      }

      .cls-2 {
        fill: #fff;
      }
    </style>
  </defs>
  <g id="Layer_1-2" data-name="Layer_1">
    <g>
      <path class="cls-2" d="M100.5,49.59c3.2,1.91,6.72,2.47,10.36,2.58,1.15,0,2.15-.17,3.77.51,1.49.63,2.32.28,2.54,1.82.09.66.16,1.31.25,1.97,1.48,10.55,10.78,19.17,21.47,19.89,8.81.61,16.24-1.94,21.49-9.45,2.71-3.44,4.04-7.45,4.34-11.72.15-2.19.98-2.42,2.77-2.02,3.81.85,7.57.58,11.25-.75,1-.36,3.94-.66,4.28-1.89,2.18-2.18.67-2.93-.61-5.14-1.07-1.86-2.22-3.64-3.58-5.29-4.28-4.76-9.68-6.74-15.99-6.48-1.98.53-3.97,1.02-5.93,1.63-.71.22-1.24.24-1.81-.23-2.59-2.11-5.66-3.27-8.75-4.41-6.1-1.14-12.05-.57-17.22,2.93-2.6,1.76-4.73,1.81-7.26.55-5.44-.84-10.77-1.02-15.47,2.55-2.81,2.6-5.41,5.36-7,8.93-.76,1.7-.55,3.02,1.13,4.03Z"/>
      <path class="cls-2" d="M50.74,69.5c1.89,1.99,5.97,5.57,12.26,6.77,1.48.28,6.32,1.05,12-1,5.86-2.11,9.22-6,10.52-7.68,5.32-7.66,6.26-15.77,2.24-24.24-2.68-5.66-7.32-9.31-13.02-11.7-8.13-2.11-15.65-1.04-22.35,4.31-.52.53-1.04,1.06-1.55,1.6-5.15,5.39-7.24,12.52-6.25,19.32.98,6.71,4.7,11.09,6.16,12.62Z"/>
      <path class="cls-2" d="M185.32,66.62c-1.83-1.47-4.78-1.57-6.7.04-4.18,3.52-8.26,7.17-12.38,10.76-4.32,3.2-7.98,7.29-12.92,9.66-2.63,1.1-5.34,1.61-8.22,1.45-2.4-.13-4.82-.17-7.21,0-4.08.3-7.49-1.1-10.43-3.78-2.75-2.5-5.41-5.11-8.11-7.67-3.87-4-7.68-8.07-11.64-11.97-1.99-1.96-4.59-1.94-6.48-.04-4.4,4.41-8.7,8.94-13.04,13.41-1.07,1.03-2.19,2.02-3.2,3.1-4.52,4.81-9.68,7.97-16.66,6.95-1.7-.25-3.48-.11-5.21-.02-2.7.14-5.27-.25-7.68-1.52-7.75-5.36-14.35-12.11-21.56-18.11-1.58-1.31-2.84-3.06-4.95-3.68-2.51-.71-4.58-.16-6.08,2.09-1.49,2.23-1.55,5.46.1,7.75,4.6,6.38,9.27,12.71,13.92,19.06,2.53,3.9,5.55,7.46,7.88,11.5,1.73,3.01,2.85,6.09,2.71,9.67-.12,3.3-.25,6.65.39,9.94.05,2.62.1,5.25.15,7.87-.03,2.72-.18,5.46.36,8.15,0,0,0,0,0,0,.05,2.78.09,5.56.14,8.34-.02,2.56-.18,5.13.36,7.67,0,0,0,0,0,0,.08,4.63.04,9.27.27,13.9.15,3.1,1.66,4.92,3.85,4.95,3.64.05,7.28-.07,10.91-.12.85-.63.42-1.54.43-2.3.04-5.99.02-11.98.02-17.97,0-1.75-.03-3.49.01-5.24.04-1.86,1-3.01,2.87-3.1,1.8-.08,2.71,1.09,3.02,2.72.14.72.08,1.49.08,2.24,0,7.24.04,14.48-.03,21.71-.02,1.62.44,2.19,2.09,2.11,2.65-.12,5.32-.03,7.98-.04,3.25,0,4.83-1.31,5.02-4.5.41-6.81.64-13.62.56-20.44,0,0,0,0,0-.01.1-.73.26-1.47.28-2.2.36-11.73.73-23.46,1.02-35.2.06-2.37.5-4.61,1.32-6.81,1.8-4.85,4.63-9.19,6.86-13.83,1.4-2.05,2.69-4.2,4.23-6.14,2.96-3.71,6.98-3.6,9.8.2,4.18,5.63,7.53,11.77,10.72,17.98,2.15,4.2,2.78,8.54.78,13.2-1.53,3.56-2.35,7.44-3.48,11.17-1.73,5.47-3.93,10.81-4.78,16.54,3.36.56,6.75.02,10.11.33,0,0,0,0,0,0,0,0,0,0,0,0,1.85.68,2.51,2.3,3.02,3.97.9,2.95,1,6.01.99,9.07-.02,4.23-.07,8.47.06,12.7.1,3.14,1.06,3.96,4.04,3.97,1.66,0,3.32-.06,4.97.02,1.24.06,1.88-.39,1.94-1.64.54-.84.29-1.79.29-2.68.02-6.91,0-13.83.02-20.74.01-2.5,1.12-3.85,3.02-3.72,2.24.15,2.87,1.68,2.88,3.64.01,2.83-.04,5.66.02,8.49.1,4.82-.07,9.63-.53,14.43-.17,1.78.53,2.34,2.26,2.22,1.99-.13,4-.11,5.99,0,1.73.09,2.57-.8,3.15-2.25.45-1.12.5-2.28.44-3.44-.25-5.07.33-10.11.59-15.16.14-2.65.51-5.31,1.91-7.67,1.11-.99,2.43-1.34,3.9-1.3,1.82.04,3.66-.13,5.47.04,2.38.23,2.56-.74,1.95-2.68-2-6.41-3.69-12.92-5.91-19.25-2.21-6.32-2.47-12.45.12-18.66,0,0,0,0,0,0,3.12-4.86,7.4-8.83,10.4-13.78h0s0,0,0,0c3.52-4.61,7.05-9.21,10.55-13.84.95-1.25,1.94-2.51,2.65-3.9,1.31-2.59.5-5.94-1.66-7.67Z"/>
    </g>
    <rect class="cls-1" x=".5" y=".5" width="207" height="207"/>
  </g>
</svg>