<?xml version="1.0" encoding="UTF-8"?>
<svg version="1.1" xmlns="http://www.w3.org/2000/svg" width="626" height="470">
<path d="M0 0 C206.58 0 413.16 0 626 0 C626 155.1 626 310.2 626 470 C419.42 470 212.84 470 0 470 C0 314.9 0 159.8 0 0 Z " fill="#F1F1F1" transform="translate(0,0)"/>
<path d="M0 0 C1.74622331 -0.01169993 1.74622331 -0.01169993 3.52772385 -0.02363622 C6.74623601 -0.04009306 9.96380027 -0.03422053 13.18228829 -0.01870513 C16.65820219 -0.00737258 20.13398987 -0.02486377 23.60987854 -0.03860474 C30.41430073 -0.06082226 37.21844695 -0.05604251 44.02287989 -0.04154153 C49.55422751 -0.03024246 55.08549786 -0.02872127 60.61685371 -0.03416061 C61.40457345 -0.03492678 62.1922932 -0.03569294 63.00388323 -0.03648233 C64.60421167 -0.03808098 66.20454008 -0.03970205 67.80486847 -0.04134528 C82.80682433 -0.05559866 97.80862736 -0.03921703 112.81055815 -0.01234345 C125.67652145 0.00999064 138.54225916 0.00611833 151.40821838 -0.01693726 C166.35549717 -0.04371006 181.302642 -0.05422083 196.24994141 -0.03887594 C197.84463725 -0.03728323 199.43933312 -0.03571137 201.03402901 -0.03416061 C202.21090023 -0.03300355 202.21090023 -0.03300355 203.41154663 -0.03182311 C208.93427306 -0.02751021 214.45691437 -0.03478387 219.97962761 -0.04655838 C226.71296698 -0.0605986 233.446015 -0.05675189 240.1793211 -0.03015466 C243.61335072 -0.01703593 247.04689504 -0.01183 250.48092079 -0.02840042 C254.20700312 -0.04206007 257.93171958 -0.02493126 261.65771484 0 C262.73855754 -0.01115361 263.81940023 -0.02230722 264.93299574 -0.03379881 C271.64496494 0.0533352 276.29384582 1.10496305 281.39234924 5.63491821 C284.81144366 9.63653168 284.82091782 13.57524335 284.7800293 18.63673401 C284.7881076 19.8373565 284.7881076 19.8373565 284.79634911 21.06223398 C284.81064467 23.74148547 284.8035211 26.420244 284.79640198 29.09951782 C284.80210471 31.02153419 284.80906859 32.94354718 284.81719971 34.86555481 C284.83515687 40.08455217 284.83395791 45.30338163 284.82825732 50.52240062 C284.82516919 54.87887872 284.83125374 59.2353244 284.83729607 63.59179789 C284.85134807 73.86881264 284.84977435 84.14574428 284.83839417 94.42276001 C284.8269118 105.02639136 284.84098915 115.62976983 284.86779064 126.23336786 C284.88993889 135.33668994 284.896587 144.43993259 284.89071423 153.54327971 C284.88734142 158.98056916 284.8897813 164.41769649 284.90696526 169.8549633 C284.92241832 174.96779087 284.91849694 180.08024345 284.89966011 185.19305611 C284.89596971 187.06916863 284.89909579 188.94530883 284.9095459 190.82139587 C284.92272682 193.38340362 284.91123463 195.94416469 284.89355469 198.50611877 C284.90315969 199.24785699 284.9127647 199.98959521 284.92266077 200.75381035 C284.85034682 205.84973975 283.68593367 208.76629954 280.39234924 212.63491821 C275.73628226 216.87656684 269.83746267 216.05499333 263.89785767 216.02259827 C262.72175586 216.0279838 261.54565405 216.03336934 260.33391279 216.03891808 C257.07303189 216.05075082 253.81247829 216.04912551 250.55159438 216.04175127 C247.03344636 216.03702394 243.51535333 216.04952556 239.9972229 216.05976868 C233.10636518 216.07697056 226.2155986 216.07779383 219.32472498 216.07255577 C213.7241993 216.06851545 208.12370058 216.06995599 202.52317619 216.07530403 C201.72628194 216.07605245 200.92938769 216.07680088 200.10834513 216.07757198 C198.48949118 216.07910344 196.87063724 216.08064179 195.2517833 216.08218694 C180.06824238 216.09591699 164.88475298 216.09047074 149.70121323 216.07900173 C135.80896791 216.06906861 121.91685575 216.08201047 108.02463097 216.10593592 C93.76141331 216.13031532 79.49825771 216.13993767 65.23501962 216.1332832 C57.22675004 216.12978842 49.2185829 216.13204007 41.21032906 216.14953423 C34.3931239 216.16424172 27.57609332 216.16491077 20.75889165 216.14746331 C17.28062154 216.13893886 13.80266348 216.13683855 10.32440948 216.15211487 C6.55391761 216.16524921 2.7842791 216.15384283 -0.98617554 216.13612366 C-2.085881 216.14572866 -3.18558646 216.15533367 -4.31861633 216.16522974 C-10.19233895 216.10827142 -14.1481226 215.88157121 -18.60765076 211.63491821 C-21.68123766 207.07379946 -22.0374935 202.94595141 -21.98860168 197.58877563 C-21.99328166 196.79567332 -21.99796163 196.00257101 -22.00278342 195.1854353 C-22.01471694 192.53691403 -22.00528272 189.88891176 -21.99583435 187.24038696 C-21.99990078 185.33792825 -22.00524306 183.4354719 -22.01176453 181.53302002 C-22.02543537 176.37192107 -22.02014038 171.21100213 -22.01062727 166.04990005 C-22.00302952 160.64748908 -22.01007661 155.24509347 -22.01478577 149.84268188 C-22.02024297 140.77046951 -22.0130526 131.6983304 -21.99876404 122.62612915 C-21.98243762 112.13896023 -21.98772615 101.65196628 -22.00424325 91.1648016 C-22.01785909 82.15912599 -22.01977729 73.15350305 -22.01192725 64.14782047 C-22.00725128 58.76982315 -22.00662382 53.39190805 -22.01653671 48.01391602 C-22.02520548 42.95775541 -22.019186 37.90182031 -22.00185394 32.84568405 C-21.99788864 30.990537 -21.99902389 29.13537096 -22.00564194 27.28023148 C-22.01384578 24.74691875 -22.00355009 22.21432761 -21.98860168 19.68106079 C-21.99529385 18.94778659 -22.00198601 18.21451239 -22.00888097 17.45901775 C-21.94697289 12.04608713 -20.98498292 8.2057251 -17.25940782 4.17695105 C-12.02506544 -0.29052828 -6.61565103 -0.0681287 0 0 Z " fill="#F1F1F1" transform="translate(181.60765075683594,115.36508178710938)"/>
<path d="M0 0 C1.74622331 -0.01169993 1.74622331 -0.01169993 3.52772385 -0.02363622 C6.74623601 -0.04009306 9.96380027 -0.03422053 13.18228829 -0.01870513 C16.65820219 -0.00737258 20.13398987 -0.02486377 23.60987854 -0.03860474 C30.41430073 -0.06082226 37.21844695 -0.05604251 44.02287989 -0.04154153 C49.55422751 -0.03024246 55.08549786 -0.02872127 60.61685371 -0.03416061 C61.40457345 -0.03492678 62.1922932 -0.03569294 63.00388323 -0.03648233 C64.60421167 -0.03808098 66.20454008 -0.03970205 67.80486847 -0.04134528 C82.80682433 -0.05559866 97.80862736 -0.03921703 112.81055815 -0.01234345 C125.67652145 0.00999064 138.54225916 0.00611833 151.40821838 -0.01693726 C166.35549717 -0.04371006 181.302642 -0.05422083 196.24994141 -0.03887594 C197.84463725 -0.03728323 199.43933312 -0.03571137 201.03402901 -0.03416061 C202.21090023 -0.03300355 202.21090023 -0.03300355 203.41154663 -0.03182311 C208.93427306 -0.02751021 214.45691437 -0.03478387 219.97962761 -0.04655838 C226.71296698 -0.0605986 233.446015 -0.05675189 240.1793211 -0.03015466 C243.61335072 -0.01703593 247.04689504 -0.01183 250.48092079 -0.02840042 C254.20700312 -0.04206007 257.93171958 -0.02493126 261.65771484 0 C262.73855754 -0.01115361 263.81940023 -0.02230722 264.93299574 -0.03379881 C271.64496494 0.0533352 276.29384582 1.10496305 281.39234924 5.63491821 C284.81144366 9.63653168 284.82091782 13.57524335 284.7800293 18.63673401 C284.7881076 19.8373565 284.7881076 19.8373565 284.79634911 21.06223398 C284.81064467 23.74148547 284.8035211 26.420244 284.79640198 29.09951782 C284.80210471 31.02153419 284.80906859 32.94354718 284.81719971 34.86555481 C284.83515687 40.08455217 284.83395791 45.30338163 284.82825732 50.52240062 C284.82516919 54.87887872 284.83125374 59.2353244 284.83729607 63.59179789 C284.85134807 73.86881264 284.84977435 84.14574428 284.83839417 94.42276001 C284.8269118 105.02639136 284.84098915 115.62976983 284.86779064 126.23336786 C284.88993889 135.33668994 284.896587 144.43993259 284.89071423 153.54327971 C284.88734142 158.98056916 284.8897813 164.41769649 284.90696526 169.8549633 C284.92241832 174.96779087 284.91849694 180.08024345 284.89966011 185.19305611 C284.89596971 187.06916863 284.89909579 188.94530883 284.9095459 190.82139587 C284.92272682 193.38340362 284.91123463 195.94416469 284.89355469 198.50611877 C284.90315969 199.24785699 284.9127647 199.98959521 284.92266077 200.75381035 C284.85034682 205.84973975 283.68593367 208.76629954 280.39234924 212.63491821 C275.73628226 216.87656684 269.83746267 216.05499333 263.89785767 216.02259827 C262.72175586 216.0279838 261.54565405 216.03336934 260.33391279 216.03891808 C257.07303189 216.05075082 253.81247829 216.04912551 250.55159438 216.04175127 C247.03344636 216.03702394 243.51535333 216.04952556 239.9972229 216.05976868 C233.10636518 216.07697056 226.2155986 216.07779383 219.32472498 216.07255577 C213.7241993 216.06851545 208.12370058 216.06995599 202.52317619 216.07530403 C201.72628194 216.07605245 200.92938769 216.07680088 200.10834513 216.07757198 C198.48949118 216.07910344 196.87063724 216.08064179 195.2517833 216.08218694 C180.06824238 216.09591699 164.88475298 216.09047074 149.70121323 216.07900173 C135.80896791 216.06906861 121.91685575 216.08201047 108.02463097 216.10593592 C93.76141331 216.13031532 79.49825771 216.13993767 65.23501962 216.1332832 C57.22675004 216.12978842 49.2185829 216.13204007 41.21032906 216.14953423 C34.3931239 216.16424172 27.57609332 216.16491077 20.75889165 216.14746331 C17.28062154 216.13893886 13.80266348 216.13683855 10.32440948 216.15211487 C6.55391761 216.16524921 2.7842791 216.15384283 -0.98617554 216.13612366 C-2.085881 216.14572866 -3.18558646 216.15533367 -4.31861633 216.16522974 C-10.19233895 216.10827142 -14.1481226 215.88157121 -18.60765076 211.63491821 C-21.68123766 207.07379946 -22.0374935 202.94595141 -21.98860168 197.58877563 C-21.99328166 196.79567332 -21.99796163 196.00257101 -22.00278342 195.1854353 C-22.01471694 192.53691403 -22.00528272 189.88891176 -21.99583435 187.24038696 C-21.99990078 185.33792825 -22.00524306 183.4354719 -22.01176453 181.53302002 C-22.02543537 176.37192107 -22.02014038 171.21100213 -22.01062727 166.04990005 C-22.00302952 160.64748908 -22.01007661 155.24509347 -22.01478577 149.84268188 C-22.02024297 140.77046951 -22.0130526 131.6983304 -21.99876404 122.62612915 C-21.98243762 112.13896023 -21.98772615 101.65196628 -22.00424325 91.1648016 C-22.01785909 82.15912599 -22.01977729 73.15350305 -22.01192725 64.14782047 C-22.00725128 58.76982315 -22.00662382 53.39190805 -22.01653671 48.01391602 C-22.02520548 42.95775541 -22.019186 37.90182031 -22.00185394 32.84568405 C-21.99788864 30.990537 -21.99902389 29.13537096 -22.00564194 27.28023148 C-22.01384578 24.74691875 -22.00355009 22.21432761 -21.98860168 19.68106079 C-21.99529385 18.94778659 -22.00198601 18.21451239 -22.00888097 17.45901775 C-21.94697289 12.04608713 -20.98498292 8.2057251 -17.25940782 4.17695105 C-12.02506544 -0.29052828 -6.61565103 -0.0681287 0 0 Z M-13.60765076 11.63491821 C-14.05493231 14.91257369 -14.05493231 14.91257369 -13.96841431 18.75325012 C-13.97097758 19.48268572 -13.97354086 20.21212131 -13.97618181 20.96366102 C-13.98113383 23.41444302 -13.96460391 25.86461263 -13.94822693 28.31533813 C-13.94738096 30.06945277 -13.94785521 31.82356848 -13.94955444 33.5776825 C-13.950417 38.34604041 -13.93274908 43.11417303 -13.91183257 47.88247848 C-13.8931092 52.86328608 -13.89131876 57.84409855 -13.88775635 62.82493591 C-13.87842311 72.25969964 -13.85379203 81.69435937 -13.82370788 91.12907726 C-13.79020364 101.86895203 -13.77368787 112.6088317 -13.75862157 123.3487457 C-13.72724359 145.44419463 -13.67445825 167.53954988 -13.60765076 189.63491821 C-12.50583996 188.69930129 -11.40530177 187.7621856 -10.30528259 186.82446289 C-9.6922805 186.30277212 -9.07927841 185.78108135 -8.4477005 185.24358177 C-5.60082791 182.7547033 -2.93172409 180.10194537 -0.26390076 177.42398071 C0.30888611 176.85215057 0.88167297 176.28032043 1.47181702 175.69116211 C2.67295546 174.49069883 3.87285351 173.28899326 5.07154846 172.08609009 C6.88440704 170.26788385 8.70253253 168.45506875 10.52125549 166.64273071 C15.75383795 161.41302076 20.9081927 156.18583395 25.71022034 150.55288696 C29.28405135 146.47799343 33.13571901 142.66554927 36.95484924 138.82241821 C37.77920471 137.97743774 38.60356018 137.13245728 39.45289612 136.26187134 C49.384298 126.26695929 49.384298 126.26695929 57.20484924 126.07241821 C66.30972167 126.50029841 72.81344038 133.61428707 78.85231018 139.83364868 C79.53809647 140.52702835 80.22388275 141.22040802 80.93045044 141.93479919 C82.40364687 143.42597163 83.87341135 144.92054121 85.34000397 146.41820908 C87.66130781 148.78740276 89.99297693 151.14593851 92.32771301 153.50189209 C98.95843788 160.19657413 105.57025688 166.90979037 112.17506409 173.6300354 C116.22736673 177.75170984 120.29167766 181.86122702 124.36348724 185.96362686 C125.91048602 187.52741563 127.45265253 189.09600001 128.98987579 190.66939926 C131.13206197 192.86182784 133.28904333 195.03861509 135.44996643 197.21255493 C136.39764641 198.19426918 136.39764641 198.19426918 137.36447144 199.19581604 C140.75399424 202.67120471 140.75399424 202.67120471 145.26374817 204.09881592 C147.36589958 203.8414747 147.36589958 203.8414747 148.39234924 202.63491821 C148.85690218 199.34814428 148.68264186 198.02738107 146.68397522 195.32527161 C145.88455505 194.5369545 145.08513489 193.74863739 144.26148987 192.93643188 C143.36055603 192.0358757 142.45962219 191.13531952 141.53138733 190.20747375 C140.53738857 189.23900719 139.54311945 188.27081804 138.54859924 187.30288696 C137.5386015 186.30221758 136.52970424 185.30043633 135.52186584 184.29759216 C132.8694892 181.66428345 130.20244162 179.04633536 127.53205872 176.43130493 C124.80849964 173.75894248 122.0990838 171.07232507 119.38844299 168.38687134 C114.07015282 163.12216518 108.73628339 157.87360607 103.39234924 152.63491821 C104.50366989 150.87689839 105.61651355 149.11984126 106.72999573 147.3631897 C107.34954636 146.38462509 107.96909698 145.40606049 108.60742188 144.39784241 C110.76391056 141.05977113 113.06287307 137.86831876 115.45484924 134.69741821 C119.84827424 128.7874457 124.11732164 122.80008802 128.32984924 116.75991821 C128.9220929 115.91074829 129.51433655 115.06157837 130.12452698 114.18667603 C131.30979311 112.48673143 132.49493444 110.78669981 133.6799469 109.08657837 C136.76403863 104.67105953 139.87259628 100.272872 142.98268127 95.87564087 C145.51586494 92.29395123 148.04346703 88.7085786 150.56031799 85.11538696 C153.48559965 80.94176257 156.43239765 76.78400599 159.39234924 72.63491821 C160.43068909 71.16925415 160.43068909 71.16925415 161.49000549 69.67398071 C164.64669584 65.38643207 167.12659309 62.28046701 172.39234924 60.63491821 C177.88372639 60.0247652 182.6938397 60.70633265 187.39234924 63.63491821 C190.50655491 66.62699817 192.92119955 70.11205331 195.39234924 73.63491821 C195.89540588 74.34422485 196.39846252 75.05353149 196.91676331 75.78433228 C200.5192974 80.86914808 204.08035924 85.98197851 207.63160706 91.10269165 C210.24136646 94.85593964 212.87754581 98.59026726 215.51734924 102.32241821 C216.0042926 103.01150269 216.49123596 103.70058716 216.99293518 104.41055298 C217.97000619 105.79322207 218.94721894 107.17579101 219.92457581 108.55825806 C221.91353885 111.37231655 223.90070248 114.18764317 225.88771057 117.00308228 C226.88997312 118.4231304 227.89241425 119.84305251 228.89503479 121.2628479 C231.38545486 124.78969421 233.87363387 128.31808029 236.35719299 131.84976196 C241.9927162 139.85760034 247.6878168 147.81688795 253.44874573 155.73501587 C258.11127575 162.1751136 262.59253102 168.73251861 266.99171448 175.35513306 C267.49517395 176.10359497 267.99863342 176.85205688 268.51734924 177.62319946 C268.95305237 178.27844604 269.38875549 178.93369263 269.83766174 179.60879517 C271.81031118 182.1796208 274.08913883 184.35995091 276.39234924 186.63491821 C276.46236607 163.86958642 276.51530144 141.10427233 276.54778576 118.33885479 C276.5632683 107.76896762 276.58438426 97.19914727 276.6186676 86.62930298 C276.64852756 77.41885183 276.66791415 68.20844906 276.67461473 58.99795085 C276.67853277 54.11903796 276.68776939 49.2402635 276.70953941 44.36139488 C276.72985084 39.77237613 276.73619391 35.18355329 276.73167229 30.59449387 C276.73249989 28.90739567 276.73849731 27.22029115 276.74996567 25.53323174 C276.76482652 23.23503076 276.7613268 20.93757569 276.75311279 18.63935852 C276.75587817 17.35161372 276.75864355 16.06386892 276.76149273 14.73710155 C276.65923085 11.71234133 276.65923085 11.71234133 275.16903383 9.96462697 C272.84850962 8.227897 271.48084924 8.25902855 268.59625244 8.25739479 C267.60284505 8.24957155 266.60943766 8.24174831 265.58592701 8.233688 C264.49168258 8.24038016 263.39743814 8.24707233 262.27003479 8.25396729 C261.10985934 8.24928731 259.9496839 8.24460734 258.75435162 8.23978555 C255.52875954 8.22986788 252.30350429 8.23346701 249.07792044 8.24274421 C245.60138214 8.24951523 242.12489035 8.23906318 238.64836121 8.23080444 C231.83576729 8.21744402 225.02327237 8.22035508 218.21067452 8.22904237 C212.67538911 8.23580945 207.1401315 8.23673987 201.60484314 8.23347092 C200.81791319 8.23301122 200.03098323 8.23255152 199.22020692 8.23207789 C197.6217207 8.23111874 196.0232345 8.2301461 194.4247483 8.22916012 C179.42538406 8.22059946 164.42607477 8.23045093 149.42671955 8.24656121 C136.54837327 8.25996502 123.67010811 8.25763711 110.79176331 8.24380493 C95.8471496 8.22776103 80.9025841 8.2214235 65.95796299 8.23064172 C64.36526045 8.2315974 62.7725579 8.23254051 61.17985535 8.23347092 C60.39615513 8.23393374 59.61245491 8.23439657 58.80500621 8.23487342 C53.27448764 8.23746689 47.74399956 8.23308465 42.21348572 8.22603226 C35.47631585 8.21763025 28.73925088 8.2198699 22.00209308 8.23587449 C18.56273927 8.24377483 15.12356054 8.24681906 11.68420792 8.23692703 C7.96084942 8.22878217 4.23799001 8.23894795 0.5146637 8.25396729 C-0.57958074 8.24727512 -1.67382517 8.24058295 -2.80122852 8.233688 C-4.29133961 8.24542286 -4.29133961 8.24542286 -5.81155396 8.25739479 C-7.10149277 8.25812538 -7.10149277 8.25812538 -8.41749096 8.25887072 C-11.11656363 8.72229787 -12.00414398 9.4416827 -13.60765076 11.63491821 Z " fill="#666666" transform="translate(181.60765075683594,115.36508178710938)"/>
<path d="M0 0 C5.53181794 3.16103882 10.02669614 6.47928865 12.0625 12.75 C12.91595003 19.50863456 12.96128563 26.05917339 9.3984375 32.03515625 C5.34571217 37.23733876 0.52561066 41.16611635 -6.1171875 42.03515625 C-12.97689967 42.45186774 -18.41009122 40.87890777 -23.9375 36.75 C-28.95594415 31.02917725 -31.35365521 25.62878501 -31.2109375 17.96484375 C-30.36046797 11.07604053 -27.04918954 6.19364325 -21.71875 1.94140625 C-15.34643175 -2.3207803 -7.20042072 -2.90237223 0 0 Z " fill="#666666" transform="translate(246.9375,160.25)"/>
<path d="M0 0 C0.99 0.66 1.98 1.32 3 2 C5.15274948 1.69159401 5.15274948 1.69159401 7 1 C7.1240061 6.15941688 7.21452867 11.31795822 7.2746582 16.47851562 C7.29973467 18.23225015 7.33380495 19.98588086 7.37719727 21.73925781 C7.43815604 24.26653706 7.46627719 26.79242981 7.48828125 29.3203125 C7.51408768 30.09867462 7.5398941 30.87703674 7.56648254 31.6789856 C7.56856152 35.75438002 7.20409975 38.26146585 4.61425781 41.49707031 C2 44 2 44 -0.31640625 44.7265625 C-6.35908771 44.45332821 -6.35908771 44.45332821 -9.5625 42.1875 C-11 40 -11 40 -11 37 C-10.01 37 -9.02 37 -8 37 C-7.34 37.99 -6.68 38.98 -6 40 C-2.92078868 40.25660094 -0.78863007 40.39431504 2 39 C2.68472665 37.11235097 2.68472665 37.11235097 3.125 34.9375 C3.29257812 34.20402344 3.46015625 33.47054687 3.6328125 32.71484375 C3.75398438 32.14894531 3.87515625 31.58304687 4 31 C2.948125 31.7425 2.948125 31.7425 1.875 32.5 C-1.47321887 34.2468968 -3.2758163 34.55466566 -7 34 C-10.29997795 31.89168075 -11.30437868 29.6017826 -12.25 25.9375 C-13.93306253 16.73372563 -13.90359188 9.05056742 -8.75 1.0625 C-5.86265491 -0.69053095 -3.28119108 -0.29296349 0 0 Z " fill="#626262" transform="translate(377,366)"/>
<path d="M0 0 C3.83514214 1.70450762 5.4295722 3.16108013 7 7 C7.4303404 10.11508586 7.3702104 13.2330221 7.375 16.375 C7.39949219 17.21289062 7.42398437 18.05078125 7.44921875 18.9140625 C7.47527739 24.43849372 6.72789196 27.65303573 3 32 C-0.75047482 34.50031654 -2.55856266 34.53603554 -7 34 C-10.73823347 31.09248508 -12.57014457 28.46038974 -14 24 C-14.67256211 16.61055141 -15.00431944 9.43551338 -11 3 C-7.75109989 -0.59699655 -4.67894377 -0.4925204 0 0 Z " fill="#EEEEEE" transform="translate(262,366)"/>
<path d="M0 0 C1.65 0 3.3 0 5 0 C6.65466537 3.71676862 8.30869345 7.43382015 9.9621582 11.15112305 C10.52351098 12.41291773 11.08503103 13.67463802 11.64672852 14.9362793 C12.45894766 16.76070398 13.27049441 18.58542796 14.08203125 20.41015625 C14.81256714 22.05189819 14.81256714 22.05189819 15.55786133 23.72680664 C17.06209576 27.14093752 18.53035837 30.5708362 20 34 C20.33 22.78 20.66 11.56 21 0 C22.32 0 23.64 0 25 0 C25 14.52 25 29.04 25 44 C23.35 44 21.7 44 20 44 C18.26879427 40.0842316 16.54042337 36.1672178 14.8125 32.25 C14.32974609 31.15816406 13.84699219 30.06632812 13.34960938 28.94140625 C12.86943359 27.85214844 12.38925781 26.76289063 11.89453125 25.640625 C11.24254761 24.16384277 11.24254761 24.16384277 10.57739258 22.65722656 C8.3354464 17.45921484 6.17726447 12.22543472 4 7 C3.67 19.21 3.34 31.42 3 44 C2.01 44 1.02 44 0 44 C0 29.48 0 14.96 0 0 Z " fill="#737373" transform="translate(217,355)"/>
<path d="M0 0 C2.74059576 2.16830242 3.87824309 3.36638489 4.54589844 6.84082031 C4.5668457 7.90913086 4.58779297 8.97744141 4.609375 10.078125 C4.64160156 11.23828125 4.67382812 12.3984375 4.70703125 13.59375 C4.72121094 14.8003125 4.73539062 16.006875 4.75 17.25 C4.77964844 18.47203125 4.80929687 19.6940625 4.83984375 20.953125 C4.91052402 23.96881644 4.96323175 26.9837355 5 30 C5.66 30.33 6.32 30.66 7 31 C7 31.66 7 32.32 7 33 C4.33333333 33 1.66666667 33 -1 33 C-1.99 33.495 -1.99 33.495 -3 34 C-6.42723983 34.37252607 -8.36467848 34.36781772 -11.375 32.625 C-13.89493518 28.55433547 -13.73963355 24.65579853 -13 20 C-10.25638937 15.46707808 -4.7588868 13.91168957 0 12 C0.04241723 9.66705225 0.04092937 7.33297433 0 5 C-1.10796961 3.68879347 -1.10796961 3.68879347 -3.875 3.625 C-4.90625 3.74875 -5.9375 3.8725 -7 4 C-8.71711243 6.44496043 -8.71711243 6.44496043 -10 9 C-10.99 9 -11.98 9 -13 9 C-12.52238806 3.62686567 -12.52238806 3.62686567 -10.4375 1.125 C-7.02836982 -0.4484447 -3.67475073 -0.91151044 0 0 Z " fill="#666666" transform="translate(353,366)"/>
<path d="M0 0 C0.9075 0.37125 1.815 0.7425 2.75 1.125 C3.4925 1.41375 4.235 1.7025 5 2 C5.99 1.34 6.98 0.68 8 0 C14.08884841 -0.66423801 14.08884841 -0.66423801 17.19824219 1.60253906 C19.6004434 4.79896398 19.46027192 6.76450045 19.390625 10.734375 C19.37773437 12.02988281 19.36484375 13.32539063 19.3515625 14.66015625 C19.31814366 16.02344824 19.28428391 17.38672949 19.25 18.75 C19.22992707 20.12888064 19.21167767 21.50778912 19.1953125 22.88671875 C19.14815448 26.25851744 19.08234538 29.62890687 19 33 C18.01 33 17.02 33 16 33 C15.97494385 32.15703369 15.9498877 31.31406738 15.92407227 30.44555664 C15.82911845 27.32758326 15.72987552 24.20978497 15.62768555 21.09204102 C15.58428777 19.74085853 15.5426163 18.38961947 15.50268555 17.03833008 C15.44510048 15.09963299 15.38085702 13.16113724 15.31640625 11.22265625 C15.27974854 10.05484619 15.24309082 8.88703613 15.20532227 7.68383789 C15.29923812 5.08220205 15.29923812 5.08220205 14 4 C11.36 4 8.72 4 6 4 C5.67 13.57 5.34 23.14 5 33 C3.68 33 2.36 33 1 33 C0.97494385 32.15703369 0.9498877 31.31406738 0.92407227 30.44555664 C0.82911845 27.32758326 0.72987552 24.20978497 0.62768555 21.09204102 C0.58428777 19.74085853 0.5426163 18.38961947 0.50268555 17.03833008 C0.44510048 15.09963299 0.38085702 13.16113724 0.31640625 11.22265625 C0.27974854 10.05484619 0.24309082 8.88703613 0.20532227 7.68383789 C0.29923812 5.08220205 0.29923812 5.08220205 -1 4 C-5.05577242 3.57363561 -5.05577242 3.57363561 -8.66333008 5.1418457 C-10.55187085 7.76717608 -10.43333533 9.76674871 -10.51171875 12.98046875 C-10.56489258 14.72553711 -10.56489258 14.72553711 -10.61914062 16.50585938 C-10.64169922 17.72080078 -10.66425781 18.93574219 -10.6875 20.1875 C-10.72166016 21.41404297 -10.75582031 22.64058594 -10.79101562 23.90429688 C-10.8735941 26.93610678 -10.94271369 29.96762379 -11 33 C-11.99 33 -12.98 33 -14 33 C-14 22.44 -14 11.88 -14 1 C-13.01 1 -12.02 1 -11 1 C-11 1.66 -11 2.32 -11 3 C-10.484375 2.505 -9.96875 2.01 -9.4375 1.5 C-6.11025784 -0.54753364 -3.85169806 -0.33786825 0 0 Z " fill="#737373" transform="translate(314,366)"/>
<path d="M0 0 C2.69105198 2.17574416 4.45532928 3.91065856 6 7 C6.13559318 10.00474497 6.04299016 12.99068847 6 16 C0.72 16 -4.56 16 -10 16 C-9.855625 17.753125 -9.71125 19.50625 -9.5625 21.3125 C-9.48128906 22.29863281 -9.40007812 23.28476562 -9.31640625 24.30078125 C-9.08187441 27.09375599 -9.08187441 27.09375599 -8 30 C-4.58343976 30.16677282 -4.58343976 30.16677282 -1 30 C1.35953094 27.64046906 1.49141413 26.22104383 2 23 C2.99 23 3.98 23 5 23 C4.71574109 26.69536586 4.4523486 29.3214771 2.375 32.4375 C-1.00237979 34.65946039 -3.03523594 34.62601538 -7 34 C-11.19189026 30.83279403 -12.6361676 27.97859174 -14 23 C-14.79919163 14.54102364 -14.2460671 8.29621474 -9.8125 1.0625 C-6.68512023 -0.77079159 -3.44641546 -0.73899747 0 0 Z " fill="#686868" transform="translate(404,366)"/>
<path d="M0 0 C3.0625 0.5625 3.0625 0.5625 5.22265625 2.53515625 C7.71737379 6.64005242 7.65426384 9.85195608 7.5625 14.5625 C7.57796875 15.3565625 7.5934375 16.150625 7.609375 16.96875 C7.58255 20.99249936 7.353211 23.09372852 5.1875 26.5859375 C3.0625 28.5625 3.0625 28.5625 0.5625 29.1875 C-3.11496039 28.2681349 -3.96800339 26.78194852 -5.9375 23.5625 C-6.49245211 20.36068361 -6.45152989 17.24141097 -6.375 14 C-6.38208984 13.14986328 -6.38917969 12.29972656 -6.39648438 11.42382812 C-6.35951512 7.7979972 -6.29902898 5.24982545 -4.59375 2.0078125 C-2.9375 0.5625 -2.9375 0.5625 0 0 Z " fill="#EEEEEE" transform="translate(373.9375,368.4375)"/>
<path d="M0 0 C3.83514214 1.70450762 5.4295722 3.16108013 7 7 C7.4303404 10.11508586 7.3702104 13.2330221 7.375 16.375 C7.39949219 17.21289062 7.42398437 18.05078125 7.44921875 18.9140625 C7.47527739 24.43849372 6.72789196 27.65303573 3 32 C-0.75047482 34.50031654 -2.55856266 34.53603554 -7 34 C-10.73823347 31.09248508 -12.57014457 28.46038974 -14 24 C-14.67256211 16.61055141 -15.00431944 9.43551338 -11 3 C-7.75109989 -0.59699655 -4.67894377 -0.4925204 0 0 Z M-8.69555664 4.734375 C-10.94009135 8.6327995 -10.47206273 12.60110679 -10.4375 17 C-10.45748047 17.90234375 -10.47746094 18.8046875 -10.49804688 19.734375 C-10.52719527 25.00797799 -10.52719527 25.00797799 -8.1640625 29.59375 C-5.21343437 31.51112568 -3.44700337 31.58672398 0 31 C3.34194655 27.77329299 3.92006374 24.45558354 4.16796875 19.94140625 C4.17441406 18.82636719 4.18085938 17.71132813 4.1875 16.5625 C4.20167969 15.45003906 4.21585937 14.33757812 4.23046875 13.19140625 C3.91894204 8.87755338 3.07280372 6.07280372 0 3 C-4.82841298 2.30343405 -4.82841298 2.30343405 -8.69555664 4.734375 Z " fill="#6C6C6C" transform="translate(262,366)"/>
<path d="M0 0 C1.65 0 3.3 0 5 0 C9.59225513 9.41002278 9.59225513 9.41002278 9 14 C8.34 14 7.68 14 7 14 C6.01 11.69 5.02 9.38 4 7 C3.67 19.21 3.34 31.42 3 44 C2.01 44 1.02 44 0 44 C0 29.48 0 14.96 0 0 Z " fill="#676767" transform="translate(217,355)"/>
<path d="M0 0 C0.99 0.66 1.98 1.32 3 2 C2.67 3.32 2.34 4.64 2 6 C1.34 5.34 0.68 4.68 0 4 C-3 3.58333333 -3 3.58333333 -6 4 C-8.77300283 8.15950425 -8.33074562 11.55132168 -8.3125 16.4375 C-8.32861328 17.29666016 -8.34472656 18.15582031 -8.36132812 19.04101562 C-8.36416739 22.70083445 -8.36366264 25.28881359 -6.6796875 28.58203125 C-4.95805204 30.31509711 -4.95805204 30.31509711 -1.8125 30.25 C-0.4203125 30.12625 -0.4203125 30.12625 1 30 C1 30.99 1 31.98 1 33 C-1.84083641 34.42041821 -3.85477278 34.31452272 -7 34 C-10.29997795 31.89168075 -11.30437868 29.6017826 -12.25 25.9375 C-13.93306253 16.73372563 -13.90359188 9.05056742 -8.75 1.0625 C-5.86265491 -0.69053095 -3.28119108 -0.29296349 0 0 Z " fill="#666666" transform="translate(377,366)"/>
<path d="M0 0 C0.62133891 10.01046025 0.62133891 10.01046025 -1.6875 13.6875 C-4.42988654 15.24398966 -5.89923198 15.57119411 -9 15 C-11.32749345 11.50875983 -11.50299316 10.10777749 -11 6 C-7.99571524 2.13734816 -4.92264935 0 0 0 Z " fill="#EBEBEB" transform="translate(354,382)"/>
<path d="M0 0 C3.5 0.5625 3.5 0.5625 5.4375 2.6875 C6.5 5.5625 6.5 5.5625 6.5 11.5625 C2.21 11.5625 -2.08 11.5625 -6.5 11.5625 C-6.70145347 8.07063979 -6.84907805 5.36332611 -5.4375 2.125 C-3.5 0.5625 -3.5 0.5625 0 0 Z " fill="#EAEAEA" transform="translate(400.5,368.4375)"/>
<path d="M0 0 C0.66 0 1.32 0 2 0 C2.10845027 3.04263267 2.18752063 6.08136204 2.25 9.125 C2.30027344 10.40890625 2.30027344 10.40890625 2.3515625 11.71875 C2.43800346 17.33741237 1.82600058 20.58220796 -2 25 C-5.75047482 27.50031654 -7.55856266 27.53603554 -12 27 C-14.9375 24.5 -14.9375 24.5 -17 22 C-16.34 20.68 -15.68 19.36 -15 18 C-14.34 19.65 -13.68 21.3 -13 23 C-10.36 23 -7.72 23 -5 23 C-1.59497732 16.93017695 -1.4909128 10.94554471 -1.2109375 4.1328125 C-1 1 -1 1 0 0 Z " fill="#676767" transform="translate(267,373)"/>
<path d="M0 0 C6.32568534 -0.48659118 6.32568534 -0.48659118 9.20996094 1.59472656 C11.59349089 4.79747303 11.46018203 6.76962404 11.390625 10.734375 C11.37773437 12.02988281 11.36484375 13.32539063 11.3515625 14.66015625 C11.31814366 16.02344824 11.28428391 17.38672949 11.25 18.75 C11.22992707 20.12888064 11.21167767 21.50778912 11.1953125 22.88671875 C11.14815448 26.25851744 11.08234538 29.62890687 11 33 C10.01 33 9.02 33 8 33 C7.67 23.76 7.34 14.52 7 5 C4.69 4.01 2.38 3.02 0 2 C0 1.34 0 0.68 0 0 Z " fill="#646464" transform="translate(322,366)"/>
<path d="M0 0 C0.99 0 1.98 0 3 0 C3 0.66 3 1.32 3 2 C4.32 1.34 5.64 0.68 7 0 C6.42655063 2.86724686 6.1385485 3.8614515 4 6 C3.62792646 8.71615864 3.62792646 8.71615864 3.5859375 11.8828125 C3.54726563 13.04941406 3.50859375 14.21601563 3.46875 15.41796875 C3.4378125 16.64128906 3.406875 17.86460937 3.375 19.125 C3.33632813 20.35605469 3.29765625 21.58710938 3.2578125 22.85546875 C3.1633001 25.90349376 3.07774506 28.95150862 3 32 C2.01 32 1.02 32 0 32 C0 21.44 0 10.88 0 0 Z " fill="#666666" transform="translate(300,367)"/>
<path d="M0 0 C0.99 0 1.98 0 3 0 C3 10.56 3 21.12 3 32 C2.01 32 1.02 32 0 32 C0 21.44 0 10.88 0 0 Z " fill="#626262" transform="translate(290,367)"/>
<path d="M0 0 C3.375 0.5 3.375 0.5 6.375 2.5 C6.045 3.82 5.715 5.14 5.375 6.5 C4.715 5.84 4.055 5.18 3.375 4.5 C0.375 4.08333333 0.375 4.08333333 -2.625 4.5 C-5.02619059 8.10178588 -5.06271322 11.00866369 -5.25 15.1875 C-5.28867187 15.88939453 -5.32734375 16.59128906 -5.3671875 17.31445312 C-5.4612334 19.04254655 -5.5441968 20.77123675 -5.625 22.5 C-5.955 22.5 -6.285 22.5 -6.625 22.5 C-7.09851678 19.96050238 -7.52886716 17.42504754 -7.9375 14.875 C-8.07478516 14.16214844 -8.21207031 13.44929688 -8.35351562 12.71484375 C-8.81595523 9.6599397 -9.11752289 7.46113196 -7.6796875 4.65527344 C-5.22594049 1.5097786 -4.00606701 0.55256097 0 0 Z " fill="#717171" transform="translate(373.625,365.5)"/>
<path d="M0 0 C7.24101736 -0.61364554 7.24101736 -0.61364554 10.9375 2.375 C14.45504103 6.8518704 14.0897868 9.43321855 14 15 C13.01 15 12.02 15 11 15 C10.86722656 14.37351562 10.73445313 13.74703125 10.59765625 13.1015625 C10.42105469 12.28429687 10.24445313 11.46703125 10.0625 10.625 C9.88847656 9.81289063 9.71445312 9.00078125 9.53515625 8.1640625 C9.07669307 5.970537 9.07669307 5.970537 8 4 C5.47266765 3.34444881 5.47266765 3.34444881 3 3 C3 2.34 3 1.68 3 1 C2.01 0.67 1.02 0.34 0 0 Z " fill="#6F6F6F" transform="translate(396,366)"/>
<path d="M0 0 C1.484375 1.08984375 1.484375 1.08984375 3 3 C3.328125 6.06640625 3.328125 6.06640625 3.25 9.5625 C3.23453125 10.71878906 3.2190625 11.87507813 3.203125 13.06640625 C3 16 3 16 2 18 C1.34 18 0.68 18 0 18 C-1.17794853 14.46615441 -1.13264317 11.59722447 -1.125 7.875 C-1.12886719 5.98394531 -1.12886719 5.98394531 -1.1328125 4.0546875 C-1 1 -1 1 0 0 Z " fill="#757575" transform="translate(249,375)"/>
<path d="M0 0 C2 1.5 2 1.5 3 3 C0.4048404 3.79851065 -1.3073389 3.97491111 -4.0625 3.75 C-5.031875 3.8325 -6.00125 3.915 -7 4 C-8.71711243 6.44496043 -8.71711243 6.44496043 -10 9 C-10.99 9 -11.98 9 -13 9 C-12.52238806 3.62686567 -12.52238806 3.62686567 -10.4375 1.125 C-6.72638748 -0.58782116 -4.08259236 -0.38881832 0 0 Z " fill="#6C6C6C" transform="translate(353,366)"/>
<path d="M0 0 C0.99 1.32 1.98 2.64 3 4 C1.24382798 6.44336977 -0.12017578 7.83210694 -3.12890625 8.40625 C-7.06823044 8.56200582 -9.28564332 8.50527668 -12.5625 6.1875 C-14 4 -14 4 -14 1 C-13.01 1 -12.02 1 -11 1 C-10.34 1.99 -9.68 2.98 -9 4 C-5.92078868 4.25660094 -3.78863007 4.39431504 -1 3 C-0.67 2.01 -0.34 1.02 0 0 Z " fill="#696969" transform="translate(380,402)"/>
<path d="M0 0 C1 2 2 4 3 6 C4.27875 5.814375 5.5575 5.62875 6.875 5.4375 C10.75 4.875 10.75 4.875 13 6 C11.69363006 8.61273988 10.71590242 8.97236124 8 10 C5 10.375 5 10.375 2 10 C-0.375 8 -0.375 8 -2 6 C-1.34 4.02 -0.68 2.04 0 0 Z " fill="#6F6F6F" transform="translate(342,390)"/>
<path d="M0 0 C0.33 0 0.66 0 1 0 C1.33 7.92 1.66 15.84 2 24 C2.66 24.33 3.32 24.66 4 25 C4 25.66 4 26.32 4 27 C2.35 27 0.7 27 -1 27 C-1 26.01 -1 25.02 -1 24 C-1.66 24 -2.32 24 -3 24 C-2.67 21.69 -2.34 19.38 -2 17 C-1.67 17 -1.34 17 -1 17 C-0.67 11.39 -0.34 5.78 0 0 Z " fill="#5E5E5E" transform="translate(356,372)"/>
<path d="M0 0 C0.53625 0.66 1.0725 1.32 1.625 2 C3.89958592 4.31024799 3.89958592 4.31024799 7.25 4.25 C8.1575 4.1675 9.065 4.085 10 4 C10 4.99 10 5.98 10 7 C7.12529507 8.43735246 5.18105412 8.38172649 2 8 C-0.375 5.5 -0.375 5.5 -2 3 C-1.34 2.01 -0.68 1.02 0 0 Z " fill="#6C6C6C" transform="translate(368,392)"/>
<path d="M0 0 C1.65 0 3.3 0 5 0 C5 1.98 5 3.96 5 6 C3.35 6 1.7 6 0 6 C0 4.02 0 2.04 0 0 Z " fill="#888888" transform="translate(289,355)"/>
<path d="M0 0 C0.66 0 1.32 0 2 0 C3 3 3 3 1.75 5.6875 C1.1725 6.450625 0.595 7.21375 0 8 C-0.99 8 -1.98 8 -3 8 C-2.25 2.25 -2.25 2.25 0 0 Z " fill="#747474" transform="translate(343,367)"/>
<path d="M0 0 C1.41377341 2.63904371 2.37240135 5.07120629 3 8 C2.34 8 1.68 8 1 8 C0.67 9.98 0.34 11.96 0 14 C-0.33 14 -0.66 14 -1 14 C-1.02685938 11.85423363 -1.04633088 9.70837355 -1.0625 7.5625 C-1.07410156 6.36753906 -1.08570313 5.17257812 -1.09765625 3.94140625 C-1 1 -1 1 0 0 Z " fill="#737373" transform="translate(391,375)"/>
<path d="M0 0 C0.99 0 1.98 0 3 0 C2.67 2.31 2.34 4.62 2 7 C0.68 7 -0.64 7 -2 7 C-1.34 4.69 -0.68 2.38 0 0 Z " fill="#656565" transform="translate(406,389)"/>
<path d="M0 0 C0.33 0.99 0.66 1.98 1 3 C-0.40445835 5.2636564 -2.1967913 7.0208685 -4 9 C-4.99 8.34 -5.98 7.68 -7 7 C-4.69 4.69 -2.38 2.38 0 0 Z " fill="#737373" transform="translate(211,261)"/>
<path d="M0 0 C1.5 1.375 1.5 1.375 3 3 C3 3.66 3 4.32 3 5 C3.66 5.33 4.32 5.66 5 6 C3.68 6.33 2.36 6.66 1 7 C-0.0625 4.625 -0.0625 4.625 -1 2 C-0.67 1.34 -0.34 0.68 0 0 Z " fill="#656565" transform="translate(251,391)"/>
</svg>
